<mxfile host="app.diagrams.net" modified="2023-07-14T09:21:00.707Z" agent="Mozilla/5.0 (Windows NT 10.0; Win64; x64) AppleWebKit/537.36 (KHTML, like Gecko) Chrome/114.0.0.0 Safari/537.36 Edg/114.0.1823.79" etag="NiclB5qRz-M2hFtCXh5X" version="21.6.2" type="github">
  <diagram name="第 1 页" id="34YcU4taMujtLToNAZRw">
    <mxGraphModel dx="1274" dy="604" grid="1" gridSize="10" guides="1" tooltips="1" connect="1" arrows="1" fold="1" page="1" pageScale="1" pageWidth="827" pageHeight="1169" math="0" shadow="0">
      <root>
        <mxCell id="0" />
        <mxCell id="1" parent="0" />
        <mxCell id="1aOtj4ER7P9dOIGl5S1n-4" value="提交" style="edgeStyle=orthogonalEdgeStyle;rounded=0;orthogonalLoop=1;jettySize=auto;html=1;exitX=0.5;exitY=1;exitDx=0;exitDy=0;entryX=0.5;entryY=0;entryDx=0;entryDy=0;" edge="1" parent="1" source="1aOtj4ER7P9dOIGl5S1n-1" target="1aOtj4ER7P9dOIGl5S1n-2">
          <mxGeometry relative="1" as="geometry" />
        </mxCell>
        <mxCell id="1aOtj4ER7P9dOIGl5S1n-9" style="edgeStyle=orthogonalEdgeStyle;rounded=0;orthogonalLoop=1;jettySize=auto;html=1;exitX=1;exitY=0.5;exitDx=0;exitDy=0;entryX=0;entryY=0.5;entryDx=0;entryDy=0;" edge="1" parent="1" source="1aOtj4ER7P9dOIGl5S1n-1" target="1aOtj4ER7P9dOIGl5S1n-8">
          <mxGeometry relative="1" as="geometry" />
        </mxCell>
        <mxCell id="1aOtj4ER7P9dOIGl5S1n-10" value="作废" style="edgeLabel;html=1;align=center;verticalAlign=middle;resizable=0;points=[];" vertex="1" connectable="0" parent="1aOtj4ER7P9dOIGl5S1n-9">
          <mxGeometry x="-0.32" y="1" relative="1" as="geometry">
            <mxPoint as="offset" />
          </mxGeometry>
        </mxCell>
        <mxCell id="1aOtj4ER7P9dOIGl5S1n-1" value="创建" style="rounded=0;whiteSpace=wrap;html=1;" vertex="1" parent="1">
          <mxGeometry x="240" y="250" width="120" height="60" as="geometry" />
        </mxCell>
        <mxCell id="1aOtj4ER7P9dOIGl5S1n-6" style="edgeStyle=orthogonalEdgeStyle;rounded=0;orthogonalLoop=1;jettySize=auto;html=1;exitX=0.75;exitY=0;exitDx=0;exitDy=0;entryX=0.75;entryY=1;entryDx=0;entryDy=0;" edge="1" parent="1" source="1aOtj4ER7P9dOIGl5S1n-2" target="1aOtj4ER7P9dOIGl5S1n-1">
          <mxGeometry relative="1" as="geometry" />
        </mxCell>
        <mxCell id="1aOtj4ER7P9dOIGl5S1n-7" value="撤回" style="edgeLabel;html=1;align=center;verticalAlign=middle;resizable=0;points=[];" vertex="1" connectable="0" parent="1aOtj4ER7P9dOIGl5S1n-6">
          <mxGeometry x="0.0333" y="-3" relative="1" as="geometry">
            <mxPoint as="offset" />
          </mxGeometry>
        </mxCell>
        <mxCell id="1aOtj4ER7P9dOIGl5S1n-12" style="edgeStyle=orthogonalEdgeStyle;rounded=0;orthogonalLoop=1;jettySize=auto;html=1;exitX=1;exitY=0.5;exitDx=0;exitDy=0;entryX=0;entryY=0.5;entryDx=0;entryDy=0;" edge="1" parent="1" source="1aOtj4ER7P9dOIGl5S1n-2" target="1aOtj4ER7P9dOIGl5S1n-11">
          <mxGeometry relative="1" as="geometry" />
        </mxCell>
        <mxCell id="1aOtj4ER7P9dOIGl5S1n-13" value="审核通过" style="edgeLabel;html=1;align=center;verticalAlign=middle;resizable=0;points=[];" vertex="1" connectable="0" parent="1aOtj4ER7P9dOIGl5S1n-12">
          <mxGeometry x="-0.64" y="1" relative="1" as="geometry">
            <mxPoint x="37" y="1" as="offset" />
          </mxGeometry>
        </mxCell>
        <mxCell id="1aOtj4ER7P9dOIGl5S1n-16" style="edgeStyle=orthogonalEdgeStyle;rounded=0;orthogonalLoop=1;jettySize=auto;html=1;exitX=0.5;exitY=1;exitDx=0;exitDy=0;entryX=0.5;entryY=0;entryDx=0;entryDy=0;" edge="1" parent="1" source="1aOtj4ER7P9dOIGl5S1n-2" target="1aOtj4ER7P9dOIGl5S1n-15">
          <mxGeometry relative="1" as="geometry" />
        </mxCell>
        <mxCell id="1aOtj4ER7P9dOIGl5S1n-17" value="审核不通过" style="edgeLabel;html=1;align=center;verticalAlign=middle;resizable=0;points=[];" vertex="1" connectable="0" parent="1aOtj4ER7P9dOIGl5S1n-16">
          <mxGeometry x="-0.5333" y="3" relative="1" as="geometry">
            <mxPoint as="offset" />
          </mxGeometry>
        </mxCell>
        <mxCell id="1aOtj4ER7P9dOIGl5S1n-2" value="已提交" style="rounded=0;whiteSpace=wrap;html=1;" vertex="1" parent="1">
          <mxGeometry x="240" y="370" width="120" height="60" as="geometry" />
        </mxCell>
        <mxCell id="1aOtj4ER7P9dOIGl5S1n-5" value="" style="endArrow=classic;html=1;rounded=0;" edge="1" parent="1" source="1aOtj4ER7P9dOIGl5S1n-11">
          <mxGeometry width="50" height="50" relative="1" as="geometry">
            <mxPoint x="470" y="420" as="sourcePoint" />
            <mxPoint x="520" y="370" as="targetPoint" />
          </mxGeometry>
        </mxCell>
        <mxCell id="1aOtj4ER7P9dOIGl5S1n-8" value="作废" style="rounded=0;whiteSpace=wrap;html=1;" vertex="1" parent="1">
          <mxGeometry x="410" y="250" width="120" height="60" as="geometry" />
        </mxCell>
        <mxCell id="1aOtj4ER7P9dOIGl5S1n-14" value="" style="endArrow=classic;html=1;rounded=0;" edge="1" parent="1" target="1aOtj4ER7P9dOIGl5S1n-11">
          <mxGeometry width="50" height="50" relative="1" as="geometry">
            <mxPoint x="470" y="420" as="sourcePoint" />
            <mxPoint x="520" y="370" as="targetPoint" />
          </mxGeometry>
        </mxCell>
        <mxCell id="1aOtj4ER7P9dOIGl5S1n-11" value="审核通过" style="rounded=0;whiteSpace=wrap;html=1;" vertex="1" parent="1">
          <mxGeometry x="470" y="370" width="120" height="60" as="geometry" />
        </mxCell>
        <mxCell id="1aOtj4ER7P9dOIGl5S1n-15" value="审核不通过" style="rounded=0;whiteSpace=wrap;html=1;" vertex="1" parent="1">
          <mxGeometry x="240" y="490" width="120" height="60" as="geometry" />
        </mxCell>
      </root>
    </mxGraphModel>
  </diagram>
</mxfile>
